<svg xmlns="http://www.w3.org/2000/svg" width="153.102" height="150.626" viewBox="0 0 153.102 150.626">
  <path id="Combined_Shape" data-name="Combined Shape" d="M74.3,150.626A75.3,75.3,0,0,1,0,87.678H44.51a33.735,33.735,0,0,0,61.832,0H153.1a74.634,74.634,0,0,1-8.842,24.9A75.209,75.209,0,0,1,78.8,150.626ZM52.944,75.313A23.606,23.606,0,1,1,76.549,98.918,23.6,23.6,0,0,1,52.944,75.313ZM43.621,62.949H0a74.634,74.634,0,0,1,8.842-24.9A75.207,75.207,0,0,1,74.3,0h4.5a75.3,75.3,0,0,1,74.3,62.947H107.229a33.741,33.741,0,0,0-63.607,0h0Z" transform="translate(0.001 0)" fill="#fff"/>
</svg>
